<svg width="14" height="14" viewBox="0 0 14 14" fill="none" xmlns="http://www.w3.org/2000/svg">
<path fill-rule="evenodd" clip-rule="evenodd" d="M13.7408 0.256974C13.8222 0.338225 13.8869 0.434749 13.931 0.541015C13.9751 0.647282 13.9978 0.761204 13.9978 0.876257C13.9978 0.991309 13.9751 1.10523 13.931 1.2115C13.8869 1.31776 13.8222 1.41429 13.7408 1.49554L1.49508 13.7412C1.33084 13.9055 1.10807 13.9978 0.875798 13.9978C0.643522 13.9978 0.420759 13.9055 0.256515 13.7412C0.0922711 13.577 1.73059e-09 13.3542 0 13.122C-1.73059e-09 12.8897 0.0922711 12.6669 0.256515 12.5027L12.5022 0.256974C12.5835 0.175517 12.68 0.110889 12.7863 0.0667934C12.8925 0.0226976 13.0064 0 13.1215 0C13.2366 0 13.3505 0.0226976 13.4567 0.0667934C13.563 0.110889 13.6595 0.175517 13.7408 0.256974Z" fill="white"/>
<path fill-rule="evenodd" clip-rule="evenodd" d="M0.256974 0.256974C0.175517 0.338225 0.110889 0.434749 0.0667934 0.541015C0.0226976 0.647282 0 0.761204 0 0.876257C0 0.991309 0.0226976 1.10523 0.0667934 1.2115C0.110889 1.31776 0.175517 1.41429 0.256974 1.49554L12.5027 13.7412C12.6669 13.9055 12.8897 13.9978 13.122 13.9978C13.3542 13.9978 13.577 13.9055 13.7412 13.7412C13.9055 13.577 13.9978 13.3542 13.9978 13.122C13.9978 12.8897 13.9055 12.6669 13.7412 12.5027L1.49554 0.256974C1.41429 0.175517 1.31776 0.110889 1.2115 0.0667934C1.10523 0.0226976 0.991309 0 0.876257 0C0.761204 0 0.647282 0.0226976 0.541015 0.0667934C0.434749 0.110889 0.338225 0.175517 0.256974 0.256974Z" fill="white"/>
</svg>
